<?xml version="1.0" standalone="no"?> <!DOCTYPE svg PUBLIC "-//W3C//DTD SVG 1.0//EN" "http://www.w3.org/TR/2001/REC-SVG-20010904/DTD/svg10.dtd" > <svg xmlns="http://www.w3.org/2000/svg" width="100%" height="100%">
<defs >
<font id="myriadproregular" horiz-adv-x="417" ><font-face
    font-family="MyriadPro-Regular"
    units-per-em="1000"
    panose-1="2 11 5 3 3 4 3 2 2 4"
    ascent="750"
    descent="-250"
    alphabetic="0" />
<missing-glyph horiz-adv-x="500" d="M0 0V700H500V0H0ZM250 395L420 650H80L250 395ZM280 350L450 95V605L280 350ZM80 50H420L250 305L80 50ZM50 605V95L220 350L50 605Z" />
<glyph unicode=" " glyph-name="space" horiz-adv-x="212" />
<glyph unicode="!" glyph-name="exclam" horiz-adv-x="230" d="M149 193H81L67 674H163L149 193ZM115 -11H114Q89 -11 73 7T56 51Q56 78 72 95T115 113Q142 113 158 96T174 51T158 7T115 -11Z" />
<glyph unicode="&quot;" glyph-name="quotedbl" horiz-adv-x="337" d="M51 692H137L121 452H67L51 692ZM200 692H286L270 452H216L200 692Z" />
<glyph unicode="#" glyph-name="numbersign" horiz-adv-x="497" d="M188 255H292L311 400H207L188 255ZM154 0H94L120 196H37V255H129L148 400H61V459H156L182 650H241L215 459H320L345 650H404L379 459H461V400H370L352 255H438V196H343L317 0H257L283 196H179L154 0Z" />
<glyph unicode="$" glyph-name="dollar" horiz-adv-x="513" d="M281 -86H218V15Q125 17 66 59L90 126Q153 83 232 83Q286 83 319 110T352 181Q352 221 325 249T239 300Q156 332 115 372T74 474T115 580T224 635V735H287V638Q362 636 417 603L392 537Q331 572 266
572Q213 572 187 546T160 485Q160 448 187 424T284 371Q364 338 401 296T439 189Q439 126 398 78T281 18V-86Z" />
<glyph unicode="%" glyph-name="percent" horiz-adv-x="792" d="M187 661H188Q256 661 296 610T337 467Q337 369 293 316T182 263Q117 263 74 314T30 458Q30 552 74 606T187 661ZM184 608H183Q144 608 122 567T99 461Q97 398 120 357T184 316Q226 316 247 356T268
463Q268 527 248 567T184 608ZM231 -12H175L558 662H614L231 -12ZM611 392H612Q681 392 721 342T761 199Q761 100 717 47T606 -7Q541 -7 498 44T454 189Q454 284 498 338T611 392ZM608 339H607Q568 339 546 298T523 193Q521 129 544 88T608 46Q650 46 671 86T692
195Q692 259 672 299T608 339Z" />
<glyph unicode="&amp;" glyph-name="ampersand" horiz-adv-x="605" d="M602 0H498L435 65Q352 -11 238 -11Q143 -11 87 44T31 178Q31 303 163 375V378Q106 452 106 519Q106 585 152 635T278 685Q342 685 384 646T427 542Q427 488 393 445T279 362V359L443 171Q488
240 508 368H588Q559 200 491 119L602 0ZM253 55H254Q336 55 392 116L203 328Q116 274 116 191Q116 133 154 94T253 55ZM272 625H271Q232 625 210 597T187 527Q187 472 238 406Q295 438 322 468T350 538Q350 573 330 599T272 625Z" />
<glyph unicode="&apos;" glyph-name="quotesingle" horiz-adv-x="188" d="M51 692H137L121 452H67L51 692Z" />
<glyph unicode="(" glyph-name="parenleft" horiz-adv-x="284" d="M195 694H263Q138 524 138 284Q138 58 263 -121H195Q64 52 64 285Q65 521 195 694Z" />
<glyph unicode=")" glyph-name="parenright" horiz-adv-x="284" d="M88 -121H20Q145 56 145 287T20 694H88Q219 523 219 287Q218 54 88 -121Z" />
<glyph unicode="*" glyph-name="asterisk" horiz-adv-x="415" d="M269 685L329 650L234 526V524L385 544V476L234 494V492L330 371L267 336L206 476H204L140 335L83 371L178 493V495L30 476V544L177 525V527L83 650L144 684L206 545H208L269 685Z" />
<glyph unicode="+" glyph-name="plus" horiz-adv-x="596" d="M266 532H330V297H556V237H330V0H266V237H40V297H266V532Z" />
<glyph unicode="," glyph-name="comma" horiz-adv-x="207" d="M78 -117L16 -124Q56 -14 76 116L174 126Q156 62 128 -10T78 -117Z" />
<glyph unicode="-" glyph-name="hyphen" horiz-adv-x="307" d="M30 302H277V238H30V302Z" />
<glyph unicode="." glyph-name="period" horiz-adv-x="207" d="M111 -11H110Q85 -11 69 7T52 52T69 97T112 115T154 98T171 52Q171 25 155 7T111 -11Z" />
<glyph unicode="/" glyph-name="slash" horiz-adv-x="343" d="M66 -40H-1L277 685H346L66 -40Z" />
<glyph unicode="0" glyph-name="zero" horiz-adv-x="513" d="M253 -11H252Q155 -11 96 77T36 323Q36 483 98 572T263 661T421 574T478 332Q478 167 419 78T253 -11ZM256 57H257Q322 57 355 128T389 328Q389 453 357 523T257 593Q197 593 161 522T125 328Q124 202
159 130T256 57Z" />
<glyph unicode="1" glyph-name="one" horiz-adv-x="513" d="M236 0V568H234L121 507L104 574L246 650H321V0H236Z" />
<glyph unicode="2" glyph-name="two" horiz-adv-x="513" d="M460 0H45V54L114 121Q250 250 303 321T356 461Q356 517 326 552T228 588Q156 588 90 533L62 595Q140 661 246 661Q343 661 393 605T444 472Q444 389 391 313T220 123L169 75V73H460V0Z" />
<glyph unicode="3" glyph-name="three" horiz-adv-x="513" d="M42 33L66 100Q133 60 210 60T322 98T357 186Q356 250 308 283T189 316H140V382H189Q244 382 289 410T334 492Q334 534 306 562T220 590Q150 590 90 547L66 611Q136 661 237 661Q327 661 375 616T423
506Q423 454 392 414T303 352V350Q366 338 407 294T448 184Q448 102 385 46T211 -11Q109 -11 42 33Z" />
<glyph unicode="4" glyph-name="four" horiz-adv-x="513" d="M400 0H317V178H15V235L305 650H400V246H491V178H400V0ZM104 246H317V463Q317 514 320 565H317Q291 516 263 469L104 248V246Z" />
<glyph unicode="5" glyph-name="five" horiz-adv-x="513" d="M433 650V576H185L160 409Q190 413 213 413Q295 413 353 378Q394 355 420 312T446 211Q446 115 378 52T204 -11Q106 -11 42 29L64 96Q125 60 204 60Q268 60 313 99T357 202Q357 267 311 306T171 345Q122
345 80 338L122 650H433Z" />
<glyph unicode="6" glyph-name="six" horiz-adv-x="513" d="M416 660V588Q390 589 350 583Q251 567 194 504T124 353H126Q182 429 284 429Q371 429 425 371T480 219T421 57T263 -11Q159 -11 97 64T34 266Q34 451 144 559Q226 640 352 655Q385 660 416 660ZM264
57H265Q321 57 356 100T391 213Q391 282 355 322T257 362Q217 362 183 340T130 282Q121 264 121 244Q122 161 159 109T264 57Z" />
<glyph unicode="7" glyph-name="seven" horiz-adv-x="513" d="M57 650H467V592L184 0H94L375 575V577H57V650Z" />
<glyph unicode="8" glyph-name="eight" horiz-adv-x="513" d="M262 661H263Q353 661 403 614T453 501Q453 399 345 349V346Q476 294 476 178Q476 94 413 42T255 -11Q156 -11 97 39T37 164Q37 284 165 339V342Q113 366 87 405T61 488Q61 564 118 612T262 661ZM256
53H257Q316 53 351 85T387 169Q387 225 351 258T244 311Q188 295 158 259T127 176Q125 125 160 89T256 53ZM259 598H258Q205 598 175 568T145 494Q144 448 176 419T269 374Q314 389 341 419T368 492Q368 536 341 567T259 598Z" />
<glyph unicode="9" glyph-name="nine" horiz-adv-x="513" d="M96 -10V62Q125 60 167 66Q247 75 303 128Q372 192 389 301H386Q329 231 232 231Q146 231 93 288T40 431Q40 525 103 593T263 661Q362 661 420 587T478 387Q478 190 366 82Q289 8 177 -5Q125 -11 96
-10ZM256 594H255Q200 594 164 550T128 436Q128 375 162 337T253 298Q340 298 382 366Q389 380 389 398Q390 486 356 540T256 594Z" />
<glyph unicode=":" glyph-name="colon" horiz-adv-x="207" d="M112 342H111Q86 342 70 360T53 404Q53 432 69 449T112 467Q139 467 155 450T171 404Q171 377 155 360T112 342ZM112 -11H111Q86 -11 70 7T53 51Q53 79 69 96T112 114Q139 114 155 97T171 51Q171 24
155 7T112 -11Z" />
<glyph unicode=";" glyph-name="semicolon" horiz-adv-x="207" d="M78 -117L17 -123Q57 -15 77 116L174 126Q156 62 128 -10T78 -117ZM119 342H118Q93 342 77 360T60 404Q60 432 76 449T119 467Q146 467 162 450T178 404Q178 377 162 360T119 342Z" />
<glyph unicode="&lt;" glyph-name="less" horiz-adv-x="596" d="M66 239V293L530 532V463L139 267V265L530 69V0L66 239Z" />
<glyph unicode="=" glyph-name="equal" horiz-adv-x="596" d="M556 337H40V397H556V337ZM556 141H40V201H556V141Z" />
<glyph unicode="&gt;" glyph-name="greater" horiz-adv-x="596" d="M530 295V238L66 0V69L460 265V267L66 463V532L530 295Z" />
<glyph unicode="?" glyph-name="question" horiz-adv-x="406" d="M219 192H141L139 217Q129 304 201 390Q238 434 254 464T271 527Q271 566 247 589T176 613Q114 613 75 582L51 645Q105 686 194 686Q275 686 318 643T361 538Q361 492 340 454T275 365Q214 291
218 217L219 192ZM179 -11H178Q153 -11 137 7T120 51Q120 79 136 96T179 114Q206 114 222 97T238 51Q238 24 222 7T179 -11Z" />
<glyph unicode="@" glyph-name="at" horiz-adv-x="737" d="M449 255L470 367Q450 375 420 375Q354 375 307 322T260 195Q260 161 277 140T326 119Q367 119 403 162T449 255ZM508 -22L524 -65Q448 -105 346 -105Q219 -105 131 -19T43 208Q43 367 144 479T408 592Q537
592 617 511T698 303Q698 195 647 130T521 65Q488 65 467 87T447 153H444Q390 65 302 65Q257 65 226 99T194 191Q194 287 261 357T431 428Q494 428 538 407L505 226Q483 116 534 114Q575 112 608 163T642 296Q642 408 578 477T400 546Q274 546 187 454T100 214Q100
91 172 17T357 -57Q444 -57 508 -22Z" />
<glyph unicode="A" glyph-name="A" horiz-adv-x="612" d="M424 212H185L115 0H25L254 674H359L589 0H496L424 212ZM203 280H406L339 474Q326 514 305 597H302Q287 531 269 475L203 280Z" />
<glyph unicode="B" glyph-name="B" horiz-adv-x="542" d="M76 2V664Q139 679 235 679Q360 679 419 630Q476 588 476 511Q476 462 446 422T362 363V360Q418 347 459 304T501 192Q501 112 443 57Q376 -6 211 -6Q134 -6 76 2ZM163 606V388H242Q309 388 348 420T387
502Q387 612 240 612Q191 612 163 606ZM163 323V66Q187 62 236 62Q311 62 360 93T409 193Q409 258 360 290T235 323H163Z" />
<glyph unicode="C" glyph-name="C" horiz-adv-x="580" d="M529 92L546 22Q484 -10 368 -10Q221 -10 129 80T36 331Q36 489 133 586T388 684Q487 684 548 655L526 583Q470 611 391 611Q271 611 200 538T128 334Q128 209 196 137T386 64Q471 64 529 92Z" />
<glyph unicode="D" glyph-name="D" horiz-adv-x="666" d="M75 2V665Q169 679 261 679Q444 679 534 595Q630 508 630 353Q630 188 533 91Q434 -6 234 -6Q135 -6 75 2ZM163 601V68Q185 64 251 64Q390 63 464 138T538 350Q539 472 470 541T265 610Q204 610 163 601Z" />
<glyph unicode="E" glyph-name="E" horiz-adv-x="492" d="M424 388V316H163V73H455V0H75V674H440V601H163V388H424Z" />
<glyph unicode="F" glyph-name="F" horiz-adv-x="487" d="M75 0V674H438V601H163V377H417V305H163V0H75Z" />
<glyph unicode="G" glyph-name="G" horiz-adv-x="646" d="M590 354V30Q494 -7 382 -7Q223 -7 130 82Q36 173 36 333Q36 486 135 583T401 681Q506 681 570 650L548 579Q487 608 399 608Q275 608 202 536T128 337Q128 210 198 138T388 65Q468 65 504 83V284H368V354H590Z" />
<glyph unicode="H" glyph-name="H" horiz-adv-x="652" d="M75 674H163V392H489V674H577V0H489V316H163V0H75V674Z" />
<glyph unicode="I" glyph-name="I" horiz-adv-x="239" d="M75 674H163V0H75V674Z" />
<glyph unicode="J" glyph-name="J" horiz-adv-x="370" d="M213 230V674H301V223Q301 -11 97 -11Q41 -11 4 5L16 76Q49 63 90 63Q152 63 182 99T213 230Z" />
<glyph unicode="K" glyph-name="K" horiz-adv-x="542" d="M76 0V674H163V349H166Q189 382 219 421L425 674H533L289 388L552 0H449L228 331L163 257V0H76Z" />
<glyph unicode="L" glyph-name="L" horiz-adv-x="472" d="M75 0V674H163V73H451V0H75Z" />
<glyph unicode="M" glyph-name="M" horiz-adv-x="804" d="M660 0L644 296Q633 501 633 587H631Q583 432 546 331L427 4H361L251 325Q201 474 174 587H172Q169 455 159 289L141 0H58L105 674H216L331 348Q370 231 399 120H401Q426 216 473 348L593 674H704L746 0H660Z" />
<glyph unicode="N" glyph-name="N" horiz-adv-x="658" d="M158 0H76V674H172L387 333Q465 207 507 114L510 115Q500 228 500 391V674H582V0H494L280 342Q196 475 155 567L152 566Q158 464 158 288V0Z" />
<glyph unicode="O" glyph-name="O" horiz-adv-x="689" d="M340 -11H339Q204 -11 120 83T36 331Q36 490 123 587T348 685Q486 685 569 590T652 344Q652 177 563 83T340 -11ZM343 60H344Q444 60 502 140T560 340Q560 450 504 532T345 614Q242 614 185 532T128 333Q128
221 186 141T343 60Z" />
<glyph unicode="P" glyph-name="P" horiz-adv-x="532" d="M76 0V665Q150 679 243 679Q370 679 432 623Q492 571 492 483Q492 392 439 339Q370 265 233 265Q187 265 163 271V0H76ZM163 603V342Q190 335 235 335Q314 335 359 372T404 478Q404 543 362 576T245 610Q189
610 163 603Z" />
<glyph unicode="Q" glyph-name="Q" horiz-adv-x="689" d="M657 -26L632 -98Q520 -70 374 -21Q344 -11 333 -11Q206 -6 121 84T36 330Q36 490 123 587T349 685Q486 685 569 590T652 344Q652 219 600 136T460 21V17Q568 -10 657 -26ZM343 60H344Q444 60 502 140T560
340Q560 450 504 532T347 614Q277 614 226 574T152 470T128 332Q128 219 186 140T343 60Z" />
<glyph unicode="R" glyph-name="R" horiz-adv-x="538" d="M76 0V664Q149 679 243 679Q377 679 439 623Q492 576 492 495Q492 432 457 388T365 324V321Q437 296 464 185Q501 29 515 0H425Q409 28 381 161Q366 231 335 260T245 292H163V0H76ZM163 603V358H252Q321
358 362 393T404 486Q404 549 363 580T249 611Q193 611 163 603Z" />
<glyph unicode="S" glyph-name="S" horiz-adv-x="493" d="M42 34L65 106Q135 63 220 63Q286 63 323 94T361 177Q361 224 332 254T234 311Q56 372 56 501Q56 581 116 632T274 684Q364 684 422 652L398 580Q346 612 271 612Q208 612 176 582T144 511Q144 466 174
438T278 382Q367 347 408 302T449 184Q449 101 388 46T214 -10Q166 -10 118 2T42 34Z" />
<glyph unicode="T" glyph-name="T" horiz-adv-x="497" d="M204 0V600H-1V674H498V600H292V0H204Z" />
<glyph unicode="U" glyph-name="U" horiz-adv-x="647" d="M75 674H163V274Q163 166 206 113T320 60Q397 60 440 113T484 274V674H572V280Q572 132 503 61T317 -11Q206 -11 141 58T75 277V674Z" />
<glyph unicode="V" glyph-name="V" horiz-adv-x="558" d="M320 0H224L3 674H98L203 342Q254 176 275 90H277Q303 195 354 341L468 674H561L320 0Z" />
<glyph unicode="W" glyph-name="W" horiz-adv-x="846" d="M277 0H186L15 674H107L187 333Q219 195 237 100H239Q250 168 294 334L384 674H475L557 332Q593 178 604 101H606Q619 171 660 334L749 674H838L647 0H556L471 350Q438 485 427 571H425Q411 482 373 351L277 0Z" />
<glyph unicode="X" glyph-name="X" horiz-adv-x="571" d="M546 0H445L358 149Q314 220 281 282H279Q256 235 206 148L125 0H25L231 341L33 674H134L223 516Q265 443 285 402H288Q312 452 349 516L440 674H541L336 346L546 0Z" />
<glyph unicode="Y" glyph-name="Y" horiz-adv-x="541" d="M314 0H226V286L12 674H112L207 488Q262 375 274 349H276Q288 377 344 488L441 674H539L314 287V0Z" />
<glyph unicode="Z" glyph-name="Z" horiz-adv-x="553" d="M30 0V51L404 598V601H62V674H517V621L145 76V73H522V0H30Z" />
<glyph unicode="[" glyph-name="bracketleft" horiz-adv-x="284" d="M264 -112H81V686H264V631H150V-57H264V-112Z" />
<glyph unicode="\" glyph-name="backslash" horiz-adv-x="341" d="M342 -40H274L2 685H70L342 -40Z" />
<glyph unicode="]" glyph-name="bracketright" horiz-adv-x="284" d="M20 686H203V-112H20V-57H134V631H20V686Z" />
<glyph unicode="^" glyph-name="asciicircum" horiz-adv-x="596" d="M536 189H466L299 577H297L130 189H61L267 650H330L536 189Z" />
<glyph unicode="_" glyph-name="underscore" horiz-adv-x="500" d="M0 -75H500V-125H0V-75Z" />
<glyph unicode="`" glyph-name="grave" horiz-adv-x="300" d="M22 693H118L206 550H144L22 693Z" />
<glyph unicode="a" glyph-name="a" horiz-adv-x="482" d="M414 297V116Q414 46 421 0H342L334 61H331Q310 30 271 10T183 -11Q113 -11 74 30T35 128Q35 216 110 262T326 308V318Q326 337 323 353T309 389T275 419T216 430Q142 430 89 394L69 453Q136 495 229 495Q414
495 414 297ZM328 163V247Q123 251 123 138Q123 97 146 76T205 54Q250 54 281 77T324 135Q328 147 328 163Z" />
<glyph unicode="b" glyph-name="b" horiz-adv-x="569" d="M73 125V710H161V407H163Q214 495 328 495Q418 495 475 427T532 249Q532 126 467 58T314 -11Q205 -11 152 80H150L145 0H69Q73 44 73 125ZM161 281V194Q161 177 164 162Q177 116 213 88T296 59Q365 59
404 110T443 245Q443 322 405 374T299 426Q253 426 216 397T166 318Q161 300 161 281Z" />
<glyph unicode="c" glyph-name="c" horiz-adv-x="448" d="M403 84L418 18Q359 -10 279 -10Q170 -10 104 58T38 237Q38 350 109 422T298 495Q372 495 420 469L400 402Q356 425 298 425Q218 425 173 373T127 242Q127 160 174 111T295 61Q351 61 403 84Z" />
<glyph unicode="d" glyph-name="d" horiz-adv-x="564" d="M403 710H491V125Q491 44 495 0H416L412 84H410Q389 42 346 16T246 -11Q157 -11 98 57T38 235Q37 353 100 424T255 495Q308 495 346 474T401 422H403V710ZM403 203V287Q403 309 399 325Q389 368 355 397T272
426Q205 426 166 374T127 240Q127 162 164 111T270 60Q315 60 351 88T399 166Q403 181 403 203Z" />
<glyph unicode="e" glyph-name="e" horiz-adv-x="501" d="M462 226H123Q124 142 170 101T288 59Q365 59 422 84L438 21Q369 -10 276 -10Q166 -10 102 57T38 234Q38 346 100 420T266 495Q322 495 363 473T425 414T455 341T465 267Q465 241 462 226ZM124 289H380Q380
312 375 335T357 381T319 418T259 432Q198 432 164 388T124 289Z" />
<glyph unicode="f" glyph-name="f" horiz-adv-x="292" d="M169 0H81V417H14V484H81V507Q81 622 138 676Q184 721 255 721Q296 721 330 707L319 639Q293 650 262 650Q168 650 168 510V484H285V417H169V0Z" />
<glyph unicode="g" glyph-name="g" horiz-adv-x="559" d="M487 352V71Q487 -86 418 -151Q353 -209 241 -209Q140 -209 80 -169L102 -101Q161 -140 244 -140Q316 -140 358 -99T400 30V83H398Q377 47 338 25T244 2Q154 2 96 69T38 239Q38 356 103 425T257 495Q363
495 408 411H410L413 484H491Q487 439 487 352ZM399 207V294Q399 318 394 333Q381 374 350 400T271 427Q207 427 167 377T127 243Q127 169 164 119T270 69Q312 69 345 93T392 160Q399 180 399 207Z" />
<glyph unicode="h" glyph-name="h" horiz-adv-x="555" d="M73 0V710H161V408H163Q186 449 226 470Q267 495 316 495Q344 495 370 486T424 455T468 390T485 288V0H397V279Q397 343 370 382T285 422Q244 422 212 397T167 334Q161 320 161 292V0H73Z" />
<glyph unicode="i" glyph-name="i" horiz-adv-x="234" d="M161 0H73V484H161V0ZM116 566H115Q92 566 77 582T62 620Q62 644 77 659T117 675T156 660T171 620Q171 597 156 582T116 566Z" />
<glyph unicode="j" glyph-name="j" horiz-adv-x="243" d="M-36 -211L-46 -142Q21 -137 50 -105Q69 -84 76 -46T84 77V484H172V43Q172 -97 114 -156Q87 -183 45 -197T-36 -211ZM127 566H126Q103 566 88 582T73 620Q73 644 88 659T128 675T167 660T182 620Q182 597
167 582T127 566Z" />
<glyph unicode="k" glyph-name="k" horiz-adv-x="469" d="M161 710V262H163Q183 290 205 317L348 484H453L266 285L479 0H372L206 232L161 182V0H73V710H161Z" />
<glyph unicode="l" glyph-name="l" horiz-adv-x="236" d="M73 0V710H161V0H73Z" />
<glyph unicode="m" glyph-name="m" horiz-adv-x="834" d="M73 0V353Q73 404 69 484H146L150 406H153Q205 495 306 495Q354 495 390 469T442 398H444Q463 434 499 461Q544 495 605 495Q632 495 658 486T709 454T749 389T765 285V0H679V274Q679 346 653 384T574
423Q538 423 510 401T469 344Q462 321 462 300V0H376V291Q376 351 350 387T275 423Q237 423 207 397T166 335Q159 317 159 292V0H73Z" />
<glyph unicode="n" glyph-name="n" horiz-adv-x="555" d="M73 0V353Q73 431 69 484H147L152 405H154Q174 443 216 469T314 495Q342 495 369 486T424 455T468 391T485 289V0H397V279Q397 343 370 383T285 423Q244 423 212 397T167 333Q161 316 161 292V0H73Z" />
<glyph unicode="o" glyph-name="o" horiz-adv-x="549" d="M271 -11H270Q170 -11 104 57T38 238Q38 356 106 425T278 495Q382 495 446 426T511 247Q511 121 439 55T271 -11ZM273 55H274Q337 55 379 108T421 244Q421 315 385 372T276 429T166 373T128 241Q128 161
169 108T273 55Z" />
<glyph unicode="p" glyph-name="p" horiz-adv-x="569" d="M73 -198V326Q73 423 69 484H148L153 401H155Q210 495 326 495Q415 495 473 427T532 249Q532 125 468 57T312 -11Q209 -11 163 65H161V-198H73ZM161 281V197Q161 176 165 161Q176 115 212 87T296 58Q365
58 404 109T443 245Q443 321 405 373T300 425Q254 425 217 395T166 316Q161 288 161 281Z" />
<glyph unicode="q" glyph-name="q" horiz-adv-x="563" d="M403 -198V74H401Q380 36 340 13T243 -11Q156 -11 97 57T38 234Q38 360 104 427T257 495Q363 495 406 411H408L411 484H495Q491 431 491 351V-198H403ZM403 197V288Q403 310 399 325Q388 368 354 396T273
425Q206 425 167 374T127 239Q127 162 164 111T270 59Q313 59 347 84T396 155Q403 176 403 197Z" />
<glyph unicode="r" glyph-name="r" horiz-adv-x="327" d="M73 0V333Q73 424 69 484H146L150 389H153Q169 437 206 466T288 495Q296 495 312 493V410Q294 412 282 412Q236 412 205 381T164 300Q161 280 161 259V0H73Z" />
<glyph unicode="s" glyph-name="s" horiz-adv-x="396" d="M40 24L61 90Q118 56 178 56Q223 56 247 76T271 128Q271 159 251 178T182 216Q53 263 53 353Q53 413 99 454T220 495Q292 495 338 465L317 402Q269 430 218 430Q180 430 159 411T138 364Q138 335 158 318T229
281Q293 257 324 223T356 136Q356 70 308 30T176 -10Q98 -10 40 24Z" />
<glyph unicode="t" glyph-name="t" horiz-adv-x="331" d="M93 573L179 600V484H305V417H179V157Q179 63 245 63Q276 63 296 69L300 2Q266 -10 222 -10Q161 -10 127 27Q93 65 93 154V417H18V484H93V573Z" />
<glyph unicode="u" glyph-name="u" horiz-adv-x="551" d="M478 484V133Q478 51 482 0H404L399 79H397Q377 43 336 16T237 -11Q206 -11 179 -1T126 31T85 97T70 201V484H158V217Q158 62 266 62Q307 62 338 86T382 143Q390 162 390 188V484H478Z" />
<glyph unicode="v" glyph-name="v" horiz-adv-x="481" d="M13 484H107L202 213Q228 140 241 88H244Q256 131 285 213L379 484H471L281 0H197L13 484Z" />
<glyph unicode="w" glyph-name="w" horiz-adv-x="736" d="M18 484H108L173 239Q201 122 208 84H211Q221 129 254 238L333 484H407L482 242Q508 160 525 84H528Q538 144 565 241L634 484H721L565 0H485L411 231Q382 326 368 391H366Q351 319 322 230L244 0H164L18 484Z" />
<glyph unicode="x" glyph-name="x" horiz-adv-x="463" d="M16 484H114L183 380Q210 339 232 301H235Q253 333 284 381L351 484H447L282 250L451 0H351L280 109Q260 139 228 193H226Q217 176 175 109L105 0H8L180 247L16 484Z" />
<glyph unicode="y" glyph-name="y" horiz-adv-x="471" d="M9 484H105L210 198Q228 151 242 99H244Q245 102 256 140T275 200L371 484H464L332 139Q283 11 247 -57T166 -164Q111 -210 58 -220L36 -147Q78 -134 113 -104Q158 -69 187 -6Q194 10 194 15Q194 23 187
38L9 484Z" />
<glyph unicode="z" glyph-name="z" horiz-adv-x="428" d="M18 0V51L237 336L301 412V414H38V484H407V429L190 147Q155 101 128 72V70H411V0H18Z" />
<glyph unicode="{" glyph-name="braceleft" horiz-adv-x="284" d="M28 263V314Q76 314 92 334T109 388Q109 416 101 472T93 555Q93 621 132 653T239 686H259V631H242Q162 630 162 545Q162 530 169 474Q177 424 177 398Q178 310 105 290V288Q178 270 177 179Q177
152 169 102Q162 46 162 30Q162 -56 242 -57H259V-112H238Q93 -112 93 25Q93 58 102 107Q109 172 109 188Q109 263 28 263Z" />
<glyph unicode="|" glyph-name="bar" horiz-adv-x="239" d="M86 750H153V-250H86V750Z" />
<glyph unicode="}" glyph-name="braceright" horiz-adv-x="284" d="M256 314V263Q175 263 175 188Q175 163 183 107Q191 53 191 25Q191 -112 46 -112H25V-57H42Q122 -56 122 30Q122 46 115 102Q107 152 107 179Q106 270 179 288V290Q106 310 107 398Q107 424 115
474Q122 530 122 545Q122 630 42 631H25V686H45Q112 686 151 654T191 555Q191 528 183 472T175 388Q175 355 191 335T256 314Z" />
<glyph unicode="~" glyph-name="asciitilde" horiz-adv-x="596" d="M109 211H49Q47 283 80 322T168 361Q198 361 226 352T310 316Q397 274 434 274Q486 274 488 358H547Q550 280 518 244T433 207Q383 207 288 251Q282 254 269 260T250 270T233 278T216 285T200
290T184 294T168 295Q110 295 109 211Z" />
</font>
</defs>
</svg>
